<svg width="35" height="35" viewBox="0 0 35 35" fill="none" xmlns="http://www.w3.org/2000/svg">
<mask id="mask0_47_505" style="mask-type:alpha" maskUnits="userSpaceOnUse" x="0" y="0" width="35" height="35">
<rect width="35" height="35" fill="#D9D9D9"/>
</mask>
<g mask="url(#mask0_47_505)">
<path d="M8.75004 30.625C7.94796 30.625 7.26133 30.3394 6.69014 29.7682C6.11896 29.197 5.83337 28.5104 5.83337 27.7083V7.29167C5.83337 6.48958 6.11896 5.80295 6.69014 5.23177C7.26133 4.66059 7.94796 4.375 8.75004 4.375H29.1667C29.9688 4.375 30.6554 4.66059 31.2266 5.23177C31.7978 5.80295 32.0834 6.48958 32.0834 7.29167V17.0625C31.6216 16.8437 31.1476 16.6554 30.6615 16.4974C30.1754 16.3394 29.6771 16.224 29.1667 16.151V7.29167H8.75004V27.7083H17.573C17.6459 28.2431 17.7613 28.7535 17.9193 29.2396C18.0773 29.7257 18.2657 30.1875 18.4844 30.625H8.75004ZM8.75004 27.7083V7.29167V16.151V16.0417V27.7083ZM11.6667 24.7917H17.6094C17.6823 24.2812 17.7978 23.783 17.9558 23.2969C18.1138 22.8108 18.29 22.3368 18.4844 21.875H11.6667V24.7917ZM11.6667 18.9583H20.5625C21.3403 18.2292 22.2092 17.6215 23.1693 17.1354C24.1294 16.6493 25.1563 16.3212 26.25 16.151V16.0417H11.6667V18.9583ZM11.6667 13.125H26.25V10.2083H11.6667V13.125ZM27.7084 33.5417C25.691 33.5417 23.9714 32.8307 22.5495 31.4089C21.1276 29.987 20.4167 28.2674 20.4167 26.25C20.4167 24.2326 21.1276 22.513 22.5495 21.0911C23.9714 19.6693 25.691 18.9583 27.7084 18.9583C29.7257 18.9583 31.4454 19.6693 32.8672 21.0911C34.2891 22.513 35 24.2326 35 26.25C35 28.2674 34.2891 29.987 32.8672 31.4089C31.4454 32.8307 29.7257 33.5417 27.7084 33.5417ZM26.9792 30.625H28.4375V26.9792H32.0834V25.5208H28.4375V21.875H26.9792V25.5208H23.3334V26.9792H26.9792V30.625Z" fill="#FF8125"/>
</g>
</svg>
