<svg width="120" height="102" viewBox="0 0 120 102" fill="none" xmlns="http://www.w3.org/2000/svg">
<mask id="mask0_17_438" style="mask-type:alpha" maskUnits="userSpaceOnUse" x="0" y="0" width="120" height="102">
<rect width="119.196" height="101.686" fill="#D9D9D9"/>
</mask>
<g mask="url(#mask0_17_438)">
<path d="M74.7656 80.5016H84.6987V76.2647H89.6652C91.0724 76.2647 92.2519 75.8587 93.2038 75.0466C94.1558 74.2345 94.6317 73.2282 94.6317 72.0278V59.317C94.6317 58.1165 94.1558 57.1103 93.2038 56.2982C92.2519 55.4861 91.0724 55.0801 89.6652 55.0801H74.7656V50.8431H94.6317V42.3693H84.6987V38.1324H74.7656V42.3693H69.7991C68.3919 42.3693 67.2124 42.7753 66.2605 43.5874C65.3086 44.3995 64.8326 45.4058 64.8326 46.6062V59.317C64.8326 60.5175 65.3086 61.5237 66.2605 62.3358C67.2124 63.1479 68.3919 63.5539 69.7991 63.5539H84.6987V67.7908H64.8326V76.2647H74.7656V80.5016ZM49.933 93.2124C47.2015 93.2124 44.8631 92.3827 42.9178 90.7232C40.9726 89.0637 40 87.0689 40 84.7385V16.9477C40 14.6174 40.9726 12.6225 42.9178 10.9631C44.8631 9.30361 47.2015 8.47388 49.933 8.47388H89.6652L119.464 33.8954V84.7385C119.464 87.0689 118.492 89.0637 116.546 90.7232C114.601 92.3827 112.263 93.2124 109.531 93.2124H49.933ZM84.6987 33.8954V16.9477H49.933V84.7385H109.531V33.8954H84.6987Z" fill="#FF8125"/>
</g>
</svg>
