<svg width="99" height="103" viewBox="0 0 99 103" fill="none" xmlns="http://www.w3.org/2000/svg">
<mask id="mask0_5_107" style="mask-type:alpha" maskUnits="userSpaceOnUse" x="0" y="0" width="99" height="103">
<rect width="99" height="103" fill="#D9D9D9"/>
</mask>
<g mask="url(#mask0_5_107)">
<path d="M37.625 34.3333C35.3563 34.3333 33.4141 33.4929 31.7984 31.812C30.1828 30.1311 29.375 28.1104 29.375 25.75V17.1666C29.375 14.8062 30.1828 12.7856 31.7984 11.1047C33.4141 9.42376 35.3563 8.58331 37.625 8.58331H78.875C81.1438 8.58331 83.0859 9.42376 84.7016 11.1047C86.3172 12.7856 87.125 14.8062 87.125 17.1666V25.75C87.125 28.1104 86.3172 30.1311 84.7016 31.812C83.0859 33.4929 81.1438 34.3333 78.875 34.3333H37.625ZM37.625 25.75H78.875V17.1666H37.625V25.75ZM25.25 94.4166C22.9812 94.4166 21.0391 93.5762 19.4234 91.8953C17.8078 90.2144 17 88.1937 17 85.8333V81.5416H99.5V85.8333C99.5 88.1937 98.6922 90.2144 97.0766 91.8953C95.4609 93.5762 93.5188 94.4166 91.25 94.4166H25.25ZM17 77.25L31.3344 43.6677C32.0219 42.0941 33.0531 40.8602 34.4281 39.9661C35.8031 39.072 37.2812 38.625 38.8625 38.625H77.6375C79.2188 38.625 80.6969 39.072 82.0719 39.9661C83.4469 40.8602 84.4781 42.0941 85.1656 43.6677L99.5 77.25H17ZM43.8125 68.6666H47.9375C48.4875 68.6666 48.9688 68.4521 49.3812 68.0229C49.7938 67.5937 50 67.093 50 66.5208C50 65.9486 49.7938 65.4479 49.3812 65.0187C48.9688 64.5896 48.4875 64.375 47.9375 64.375H43.8125C43.2625 64.375 42.7812 64.5896 42.3687 65.0187C41.9563 65.4479 41.75 65.9486 41.75 66.5208C41.75 67.093 41.9563 67.5937 42.3687 68.0229C42.7812 68.4521 43.2625 68.6666 43.8125 68.6666ZM43.8125 60.0833H47.9375C48.4875 60.0833 48.9688 59.8687 49.3812 59.4396C49.7938 59.0104 50 58.5097 50 57.9375C50 57.3653 49.7938 56.8646 49.3812 56.4354C48.9688 56.0062 48.4875 55.7916 47.9375 55.7916H43.8125C43.2625 55.7916 42.7812 56.0062 42.3687 56.4354C41.9563 56.8646 41.75 57.3653 41.75 57.9375C41.75 58.5097 41.9563 59.0104 42.3687 59.4396C42.7812 59.8687 43.2625 60.0833 43.8125 60.0833ZM43.8125 51.5H47.9375C48.4875 51.5 48.9688 51.2854 49.3812 50.8562C49.7938 50.4271 50 49.9264 50 49.3541C50 48.7819 49.7938 48.2812 49.3812 47.8521C48.9688 47.4229 48.4875 47.2083 47.9375 47.2083H43.8125C43.2625 47.2083 42.7812 47.4229 42.3687 47.8521C41.9563 48.2812 41.75 48.7819 41.75 49.3541C41.75 49.9264 41.9563 50.4271 42.3687 50.8562C42.7812 51.2854 43.2625 51.5 43.8125 51.5ZM56.1875 68.6666H60.3125C60.8625 68.6666 61.3438 68.4521 61.7563 68.0229C62.1688 67.5937 62.375 67.093 62.375 66.5208C62.375 65.9486 62.1688 65.4479 61.7563 65.0187C61.3438 64.5896 60.8625 64.375 60.3125 64.375H56.1875C55.6375 64.375 55.1563 64.5896 54.7438 65.0187C54.3313 65.4479 54.125 65.9486 54.125 66.5208C54.125 67.093 54.3313 67.5937 54.7438 68.0229C55.1563 68.4521 55.6375 68.6666 56.1875 68.6666ZM56.1875 60.0833H60.3125C60.8625 60.0833 61.3438 59.8687 61.7563 59.4396C62.1688 59.0104 62.375 58.5097 62.375 57.9375C62.375 57.3653 62.1688 56.8646 61.7563 56.4354C61.3438 56.0062 60.8625 55.7916 60.3125 55.7916H56.1875C55.6375 55.7916 55.1563 56.0062 54.7438 56.4354C54.3313 56.8646 54.125 57.3653 54.125 57.9375C54.125 58.5097 54.3313 59.0104 54.7438 59.4396C55.1563 59.8687 55.6375 60.0833 56.1875 60.0833ZM56.1875 51.5H60.3125C60.8625 51.5 61.3438 51.2854 61.7563 50.8562C62.1688 50.4271 62.375 49.9264 62.375 49.3541C62.375 48.7819 62.1688 48.2812 61.7563 47.8521C61.3438 47.4229 60.8625 47.2083 60.3125 47.2083H56.1875C55.6375 47.2083 55.1563 47.4229 54.7438 47.8521C54.3313 48.2812 54.125 48.7819 54.125 49.3541C54.125 49.9264 54.3313 50.4271 54.7438 50.8562C55.1563 51.2854 55.6375 51.5 56.1875 51.5ZM68.5625 68.6666H72.6875C73.2375 68.6666 73.7188 68.4521 74.1313 68.0229C74.5438 67.5937 74.75 67.093 74.75 66.5208C74.75 65.9486 74.5438 65.4479 74.1313 65.0187C73.7188 64.5896 73.2375 64.375 72.6875 64.375H68.5625C68.0125 64.375 67.5313 64.5896 67.1188 65.0187C66.7063 65.4479 66.5 65.9486 66.5 66.5208C66.5 67.093 66.7063 67.5937 67.1188 68.0229C67.5313 68.4521 68.0125 68.6666 68.5625 68.6666ZM68.5625 60.0833H72.6875C73.2375 60.0833 73.7188 59.8687 74.1313 59.4396C74.5438 59.0104 74.75 58.5097 74.75 57.9375C74.75 57.3653 74.5438 56.8646 74.1313 56.4354C73.7188 56.0062 73.2375 55.7916 72.6875 55.7916H68.5625C68.0125 55.7916 67.5313 56.0062 67.1188 56.4354C66.7063 56.8646 66.5 57.3653 66.5 57.9375C66.5 58.5097 66.7063 59.0104 67.1188 59.4396C67.5313 59.8687 68.0125 60.0833 68.5625 60.0833ZM68.5625 51.5H72.6875C73.2375 51.5 73.7188 51.2854 74.1313 50.8562C74.5438 50.4271 74.75 49.9264 74.75 49.3541C74.75 48.7819 74.5438 48.2812 74.1313 47.8521C73.7188 47.4229 73.2375 47.2083 72.6875 47.2083H68.5625C68.0125 47.2083 67.5313 47.4229 67.1188 47.8521C66.7063 48.2812 66.5 48.7819 66.5 49.3541C66.5 49.9264 66.7063 50.4271 67.1188 50.8562C67.5313 51.2854 68.0125 51.5 68.5625 51.5Z" fill="#FF8125"/>
</g>
</svg>
