<svg width="111" height="101" viewBox="0 0 111 101" fill="none" xmlns="http://www.w3.org/2000/svg">
<mask id="mask0_5_110" style="mask-type:alpha" maskUnits="userSpaceOnUse" x="0" y="0" width="111" height="101">
<rect width="111" height="101" fill="#D9D9D9"/>
</mask>
<g mask="url(#mask0_5_110)">
<path d="M58 88.375H30.25C27.7063 88.375 25.5286 87.5508 23.7172 85.9026C21.9057 84.2543 21 82.2729 21 79.9583V21.0416C21 18.7271 21.9057 16.7456 23.7172 15.0974C25.5286 13.4491 27.7063 12.625 30.25 12.625H49.5594C50.4073 10.1701 52.0646 8.15363 54.5313 6.5755C56.9979 4.99738 59.6958 4.20831 62.625 4.20831C65.7083 4.20831 68.4641 4.99738 70.8922 6.5755C73.3203 8.15363 74.9583 10.1701 75.8063 12.625H95C97.5438 12.625 99.7214 13.4491 101.533 15.0974C103.344 16.7456 104.25 18.7271 104.25 21.0416V42.0833H95V21.0416H85.75V33.6666H39.5V21.0416H30.25V79.9583H58V88.375ZM78.8125 83.851L59.1563 65.9656L65.6313 60.0739L78.8125 72.0677L104.944 48.2906L111.419 54.1823L78.8125 83.851ZM62.625 21.0416C63.9354 21.0416 65.0339 20.6383 65.9203 19.8317C66.8068 19.0252 67.25 18.0257 67.25 16.8333C67.25 15.641 66.8068 14.6415 65.9203 13.8349C65.0339 13.0283 63.9354 12.625 62.625 12.625C61.3146 12.625 60.2161 13.0283 59.3297 13.8349C58.4432 14.6415 58 15.641 58 16.8333C58 18.0257 58.4432 19.0252 59.3297 19.8317C60.2161 20.6383 61.3146 21.0416 62.625 21.0416Z" fill="white"/>
</g>
</svg>
